<?xml version="1.0" encoding="utf-8"?>
<!-- Generator: Adobe Illustrator 17.0.0, SVG Export Plug-In . SVG Version: 6.00 Build 0)  -->
<!DOCTYPE svg PUBLIC "-//W3C//DTD SVG 1.1//EN" "http://www.w3.org/Graphics/SVG/1.1/DTD/svg11.dtd">
<svg version="1.1" id="Layer_1" xmlns="http://www.w3.org/2000/svg" xmlns:xlink="http://www.w3.org/1999/xlink" x="0px" y="0px"
	 width="136.097px" height="61.033px" viewBox="0 0 136.097 61.033" enable-background="new 0 0 136.097 61.033"
	 xml:space="preserve">
<g>
	<path d="M135.779,5.986c-3.686,4.824-7.39,9.672-11.28,14.763c3.657,4.407,7.477,9.011,11.598,13.976
		c-3.039,2.649-6.011,5.24-9.406,8.2c-3.895-4.763-7.63-9.332-11.527-14.098c-4.397,2.576-8.635,5.059-13.15,7.704
		c2.032,5.454,4.047,10.864,6.255,16.792c-3.873,1.439-7.53,2.799-11.566,4.298c-1.886-4.779-7.063-17.758-7.063-17.758
		s-10.45,2.62-14.625,3.364c0,5.758,0,11.536,0,17.805c-4.289,0-8.151,0-12.598,0c0-5.817,0-11.715,0-17.779
		c-5.21-0.892-9.903-1.694-15.084-2.581c-2.143,5.384-4.269,10.724-6.571,16.508c-3.889-1.443-7.537-2.796-11.502-4.266
		c2.078-5.644,4.008-10.887,5.964-16.2c-4.425-2.497-8.593-4.849-13.187-7.441c-3.665,4.199-7.342,8.414-11.263,12.906
		c-3.185-2.697-6.175-5.229-9.427-7.983c3.701-4.473,7.189-8.689,10.788-13.039C8.172,16.045,4.234,10.964,0,5.501
		c9.139-8.138,15.943-6.149,20.523-1.106c27.015,29.748,68.116,29.912,95.225,0.381C121.651-1.654,126.574-1.468,135.779,5.986z"/>
</g>
</svg>
