<?xml version="1.0" encoding="utf-8"?>
<!-- Generator: Adobe Illustrator 17.0.0, SVG Export Plug-In . SVG Version: 6.00 Build 0)  -->
<!DOCTYPE svg PUBLIC "-//W3C//DTD SVG 1.1//EN" "http://www.w3.org/Graphics/SVG/1.1/DTD/svg11.dtd">
<svg version="1.1"
	 id="svg2" sodipodi:docname="eye_open_font_awesome.svg" inkscape:version="0.48.3.1 r9886" xmlns:inkscape="http://www.inkscape.org/namespaces/inkscape" xmlns:sodipodi="http://sodipodi.sourceforge.net/DTD/sodipodi-0.dtd" xmlns:svg="http://www.w3.org/2000/svg" xmlns:dc="http://purl.org/dc/elements/1.1/" xmlns:cc="http://creativecommons.org/ns#" xmlns:rdf="http://www.w3.org/1999/02/22-rdf-syntax-ns#"
	 xmlns="http://www.w3.org/2000/svg" xmlns:xlink="http://www.w3.org/1999/xlink" x="0px" y="0px" width="200px" height="135.5px"
	 viewBox="0 0 200 135.5" enable-background="new 0 0 200 135.5" xml:space="preserve">
<sodipodi:namedview  inkscape:window-width="640" inkscape:window-height="480" inkscape:pageopacity="0" inkscape:window-y="25" inkscape:pageshadow="2" inkscape:window-maximized="0" inkscape:window-x="0" inkscape:current-layer="svg2" id="namedview8" guidetolerance="10" pagecolor="#ffffff" inkscape:zoom="0.13169643" inkscape:cy="896" inkscape:cx="896" gridtolerance="10" borderopacity="1" objecttolerance="10" showgrid="false" bordercolor="#666666">
	</sodipodi:namedview>
<g id="g4" transform="matrix(1,0,0,-1,30.372881,1259.8983)">
	<path id="path6" inkscape:connector-curvature="0" d="M154.433,1195.927c-11.254,17.474-25.359,30.542-42.314,39.205
		c4.516-7.7,6.775-16.03,6.775-24.989c0-13.698-4.868-25.415-14.605-35.151c-9.736-9.736-21.453-14.604-35.151-14.604
		s-25.415,4.868-35.151,14.604c-9.736,9.736-14.605,21.453-14.605,35.151c0,8.959,2.258,17.289,6.775,24.989
		c-16.955-8.663-31.06-21.731-42.314-39.205c9.847-15.178,22.194-27.266,37.039-36.262s30.931-13.494,48.256-13.494
		s33.411,4.498,48.256,13.494S144.586,1180.749,154.433,1195.927z M74.469,1238.575c0,1.481-0.518,2.74-1.555,3.776
		c-1.037,1.037-2.295,1.555-3.776,1.555c-9.255,0-17.196-3.313-23.823-9.94c-6.627-6.627-9.94-14.568-9.94-23.823
		c0-1.481,0.518-2.74,1.555-3.776c1.037-1.036,2.295-1.555,3.776-1.555s2.74,0.518,3.776,1.555c1.037,1.037,1.555,2.295,1.555,3.776
		c0,6.368,2.258,11.81,6.775,16.326s9.959,6.775,16.326,6.775c1.481,0,2.74,0.518,3.776,1.555
		C73.951,1235.835,74.469,1237.094,74.469,1238.575z M168.649,1195.927c0-2.517-0.74-5.072-2.221-7.663
		c-10.366-17.029-24.304-30.671-41.815-40.926c-17.511-10.255-36.002-15.382-55.475-15.382s-37.964,5.146-55.475,15.438
		c-17.511,10.292-31.449,23.915-41.815,40.871c-1.481,2.591-2.221,5.146-2.221,7.663c0,2.517,0.74,5.072,2.221,7.663
		c10.366,16.955,24.304,30.579,41.815,40.871c17.511,10.292,36.002,15.438,55.475,15.438s37.965-5.146,55.475-15.438
		c17.511-10.292,31.449-23.915,41.815-40.871C167.909,1200.999,168.649,1198.444,168.649,1195.927z"/>
</g>
</svg>
